#!OML:ASF E:\id_vita\Project 1\Capture day 1\Session 1\Female.ASF
:FULLY-SPECIFIED
:DEGREES
601
root 11.136 16.5535 -1.22709 -252.576 -92.1799 266.322
lowerback -13.1745 -1.98905 -7.41809
upperback -4.85824 -1.95207 0.98752
thorax 2.50879 -1.01499 4.92669
lowerneck 7.59261 -0.521288 -5.39254
upperneck -3.7996 -0.788341 8.90794
head -2.55984 -0.618184 4.00237
rclavicle -8.06631e-015 8.24956e-015
rhumerus -39.8382 -18.4396 -76.7109
rradius 23.2906
rwrist 10.7352
rhand -13.8778 9.10294
rfingers 7.12502
rthumb 12.2469 -20.5185
lclavicle -8.06631e-015 8.24956e-015
lhumerus -13.5626 13.7555 86.9186
lradius 24.7251
lwrist -26.2017
lhand -8.8082 24.1034
lfingers 7.12502
lthumb 17.1311 53.3682
rfemur -41.6448 3.09008 17.5622
rtibia 36.5441
rfoot -5.05985 -8.12462
rtoes -7.6141
lfemur -13.436 -8.71054 -27.8494
ltibia 26.1941
lfoot -21.6703 2.74801
ltoes 7.10311
602
root 10.9704 16.5362 -1.23824 -248.561 -92.3103 262.632
lowerback -13.5267 -2.2024 -7.67795
upperback -4.88004 -2.17969 1.0471
thorax 2.71609 -1.13574 5.09242
lowerneck 7.76898 -0.553649 -5.2348
upperneck -4.45441 -0.779872 8.97769
head -2.53138 -0.645325 3.60544
rclavicle -1.28309e-014 -1.46107e-014
rhumerus -39.9354 -18.3603 -76.4664
rradius 23.1953
rwrist 10.6274
rhand -14.2025 8.78269
rfingers 7.12502
rthumb 11.9339 -20.8572
lclavicle -1.28309e-014 -1.46107e-014
lhumerus -12.9559 13.265 86.9918
lradius 25.4784
lwrist -26.847
lhand -11.9583 21.7484
lfingers 7.12502
lthumb 14.0971 51.2502
rfemur -41.9431 3.86523 17.0162
rtibia 33.1906
rfoot -4.66532 -8.02467
rtoes -8.37803
lfemur -12.9902 -8.9384 -27.9588
ltibia 25.8759
lfoot -21.6505 2.99347
ltoes 6.64915
603
root 10.8029 16.5132 -1.24783 -244.892 -92.3206 259.616
lowerback -14.2014 -2.41129 -7.79177
upperback -5.04912 -2.4097 1.14681
thorax 2.93964 -1.25955 5.20921
lowerneck 7.68958 -0.578645 -5.22481
upperneck -4.24983 -0.840747 8.55188
head -2.72293 -0.639255 3.85634
rclavicle -6.64686e-015 -2.8128e-014
rhumerus -40.2197 -18.6386 -75.8792
rradius 22.9897
rwrist 11.1035
rhand -14.5656 8.98746
rfingers 7.12502
rthumb 11.5837 -20.6724
lclavicle -6.64686e-015 -2.8128e-014
lhumerus -12.63 11.6159 87.2292
lradius 25.9417
lwrist -24.1168
lhand -10.7382 23.2807
lfingers 7.12502
lthumb 15.2727 52.6968
rfemur -42.5512 4.69167 16.4923
rtibia 29.736
rfoot -4.29099 -7.72985
rtoes -9.83418
lfemur -12.9328 -9.27832 -27.8938
ltibia 25.5676
lfoot -21.477 3.31215
ltoes 6.7515
604
root 10.648 16.494 -1.23932 -241.032 -92.3088 256.049
lowerback -14.43 -2.45661 -7.56164
upperback -5.1025 -2.48838 1.12837
thorax 3.0097 -1.30299 5.0393
lowerneck 7.60376 -0.584274 -5.1777
upperneck -4.26637 -0.839782 8.55699
head -2.71208 -0.638459 3.84744
rclavicle -2.15247e-015 7.15625e-015
rhumerus -40.5793 -18.9985 -75.2967
rradius 22.9626
rwrist 11.5663
rhand -14.7996 9.03186
rfingers 7.12502
rthumb 11.3581 -20.6406
lclavicle -2.15247e-015 7.15625e-015
lhumerus -12.1113 10.6519 87.3336
lradius 26.4435
lwrist -23.6854
lhand -10.3274 23.579
lfingers 7.12502
lthumb 15.6684 52.9645
rfemur -42.669 5.17439 16.0855
rtibia 26.2495
rfoot -4.25426 -7.05918
rtoes -10.9673
lfemur -12.4494 -9.53979 -27.9516
ltibia 25.193
lfoot -21.3842 3.55988
ltoes 7.38758
605
root 10.4763 16.4781 -1.24982 -239.13 -92.5327 253.998
lowerback -14.4055 -2.58179 -7.87719
upperback -4.96697 -2.59919 1.12646
thorax 3.16685 -1.36337 5.19454
lowerneck 7.59999 -0.59213 -5.31652
upperneck -4.68387 -0.819954 8.95964
head -2.56845 -0.661522 3.61563
rclavicle -1.00914e-014 -5.96354e-015
rhumerus -40.7325 -19.3217 -74.7532
rradius 22.6941
rwrist 11.9693
rhand -14.9821 8.94135
rfingers 7.12502
rthumb 11.182 -20.7407
lclavicle -1.00914e-014 -5.96354e-015
lhumerus -11.5723 10.7354 87.3394
lradius 27.1663
lwrist -25.2955
lhand -8.85583 23.9381
lfingers 7.12502
lthumb 17.0852 53.2069
rfemur -42.1943 6.12523 15.2563
rtibia 22.8093
rfoot -4.17391 -6.93379
rtoes -11.6865
lfemur -11.3094 -9.4367 -28.2663
ltibia 24.6804
lfoot -21.563 3.5889
ltoes 7.29744
606
root 10.2999 16.4653 -1.26567 -233.995 -92.8663 248.488
lowerback -14.0521 -2.78425 -8.31979
upperback -4.8119 -2.81975 1.15552
thorax 3.19208 -1.47209 5.44442
lowerneck 7.42442 -0.558321 -5.61124
upperneck -4.79455 -0.777694 9.19281
head -2.57344 -0.641272 3.73372
rclavicle 6.24619e-015 6.06293e-015
rhumerus -40.8419 -19.6417 -74.2049
rradius 22.27
rwrist 12.4013
rhand -15.3104 8.94845
rfingers 7.12502
rthumb 10.8654 -20.7505
lclavicle 6.24619e-015 6.06293e-015
lhumerus -11.2771 9.48436 87.5518
lradius 27.8525
lwrist -23.4037
lhand -8.74988 24.397
lfingers 7.12502
lthumb 17.1872 53.6568
rfemur -41.3143 7.29242 14.19
rtibia 19.391
rfoot -3.94337 -7.14035
rtoes -12.314
lfemur -9.81693 -9.23545 -28.5738
ltibia 24.0363
lfoot -21.6677 3.43261
ltoes 6.45779
